PathFileType  4	(X/Y/Z) C:\Users\antoi\Documents\MyRepositories\mobilecap\ResultsAnalysis
DataRate	CameraRate	NumFrames	NumMarkers	Units	OrigDataRate	OrigDataStartFrame	OrigNumFrames
100.0	100.0	7	51	mm	100.0	1	2288
Frame#	Time	r_knee			r_shank_antsup			r_ankle			r_calc			r_5meta			r_toe			L_knee			L_shank_antsup			L_ankle			L_calc			L_5meta			L_toe			r_sh2			r_sh3			r_sh4			L_sh2			L_sh3			r_thigh1			r_thigh2			r_thigh3			r_thigh4			r_thigh5			L_thigh1			L_thigh2			L_thigh3			L_thigh4			r.ASIS			r.PSIS			L.ASIS			L.PSIS			C7			R_Shoulder			L_Shoulder			R_Sternum			L_Sternum			R_humerus			R_elbow_med			R_elbow_lat			R_forearm			R_wrist_radius			R_wrist_ulna			L_humerus			L_elbow_med			L_elbow_lat			L_forearm			L_wrist_radius			L_wrist_ulna			R_HJC			L_HJC			R_HJC_reg			L_HJC_reg			
		X1	Y1	Z1	X2	Y2	Z2	X3	Y3	Z3	X4	Y4	Z4	X5	Y5	Z5	X6	Y6	Z6	X7	Y7	Z7	X8	Y8	Z8	X9	Y9	Z9	X10	Y10	Z10	X11	Y11	Z11	X12	Y12	Z12	X13	Y13	Z13	X14	Y14	Z14	X15	Y15	Z15	X16	Y16	Z16	X17	Y17	Z17	X18	Y18	Z18	X19	Y19	Z19	X20	Y20	Z20	X21	Y21	Z21	X22	Y22	Z22	X23	Y23	Z23	X24	Y24	Z24	X25	Y25	Z25	X26	Y26	Z26	X27	Y27	Z27	X28	Y28	Z28	X29	Y29	Z29	X30	Y30	Z30	X31	Y31	Z31	X32	Y32	Z32	X33	Y33	Z33	X34	Y34	Z34	X35	Y35	Z35	X36	Y36	Z36	X37	Y37	Z37	X38	Y38	Z38	X39	Y39	Z39	X40	Y40	Z40	X41	Y41	Z41	X42	Y42	Z42	X43	Y43	Z43	X44	Y44	Z44	X45	Y45	Z45	X46	Y46	Z46	X47	Y47	Z47	X48	Y48	Z48	X49	Y49	Z49	X50	Y50	Z50	X51	Y51	Z51	

1	0.00000000	-189.49607	455.16395	-419.11552	-134.51728	354.74800	-432.69529	-240.01270	94.49278	-440.59021	-289.37124	52.31953	-490.71138	-129.97064	42.75049	-404.17900	-93.25178	59.78572	-447.00877	-181.58244	454.55886	-825.06239	-122.35785	354.54097	-777.04403	-249.68927	92.30409	-801.82221	-298.34949	54.33498	-757.81304	-133.16191	37.52723	-818.99322	-94.81207	57.74959	-765.91565	-157.19522	245.28077	-441.78721	-193.83625	361.15989	-385.44699	-229.00723	256.60304	-401.37265	-175.52356	383.89493	-844.50910	-202.24393	266.27339	-855.58666	-476.81497	555.74560	-463.10618	-371.29554	559.49550	-447.60332	-349.52545	517.50526	-397.10522	-481.94057	459.14172	-405.85639	-366.96458	463.10492	-392.63225	-459.12452	540.00130	-811.17366	-326.34129	548.19801	-813.31249	-468.50787	433.20910	-846.60190	-327.07513	444.32253	-848.00584	-512.55713	594.10169	-506.30247	-698.25336	570.04182	-580.45947	-503.58744	584.05263	-753.24073	-699.15386	566.84328	-693.77228	-616.94095	1037.96006	-633.15013	-565.06116	1000.84119	-479.36613	-546.96948	1007.09744	-787.51708	-500.23573	974.41871	-612.63269	-497.16641	970.45095	-653.10942	-557.46486	878.22652	-408.42271	-661.98033	687.01924	-425.34837	-609.26795	702.07272	-362.34840	-506.90369	721.51245	-427.97146	-440.95046	755.01367	-498.33049	-424.44086	721.39026	-491.01157	-533.15053	860.33262	-853.25004	-622.03343	677.90294	-828.01434	-582.93822	681.97434	-898.84398	-491.62194	701.06098	-844.09945	-410.97831	746.60886	-754.50747	-404.17177	714.36755	-748.77640	-573.63212	495.51304	-531.04117	-562.68248	486.47851	-719.88615	-552.90340	500.54178	-537.96720	-554.19997	495.93642	-701.11860	
2	0.01000000	-189.58357	455.15757	-419.09480	-134.58773	354.74474	-432.66117	-240.00399	94.49346	-440.57897	-289.40060	52.31372	-490.59864	-129.93796	42.80907	-404.19126	-93.25961	59.75325	-446.97853	-181.57865	454.56550	-825.06362	-122.41584	354.47434	-776.94080	-249.67671	92.31069	-801.84344	-298.34945	54.31488	-757.80492	-133.16394	37.52173	-819.00265	-94.80040	57.75118	-765.98210	-157.27802	245.30472	-441.69961	-193.85213	361.12329	-385.50166	-228.92278	256.75815	-401.42259	-175.52345	383.89912	-844.48583	-202.24177	266.27309	-855.56693	-476.93058	555.75334	-463.04118	-371.26482	559.44713	-447.64256	-349.54787	517.56101	-397.05648	-481.98008	459.13127	-405.88116	-366.96710	463.12207	-392.64396	-459.13966	539.99382	-811.19281	-326.35817	548.17876	-813.26123	-468.50215	433.18455	-846.59753	-327.09057	444.30435	-847.99639	-512.65794	594.13004	-506.34360	-698.27641	570.03548	-580.48135	-503.62651	584.10157	-753.21429	-699.17189	566.80674	-693.77315	-617.01306	1037.87159	-632.81561	-565.00292	1000.84810	-479.34626	-546.96949	1007.12906	-787.46618	-500.23831	974.43309	-612.56974	-497.08460	970.50314	-653.14429	-557.49928	878.19011	-408.43702	-661.87030	686.98677	-425.44626	-609.34171	702.17338	-362.28574	-506.92443	721.33884	-428.16969	-440.85975	754.87972	-497.92511	-424.33323	721.38223	-490.80952	-533.15264	860.35987	-853.23396	-622.02422	677.95686	-827.99248	-582.92882	682.00847	-898.86408	-491.60894	701.03674	-844.09337	-410.96300	746.55350	-754.49016	-404.13453	714.29452	-748.84590	-573.66107	495.53265	-531.04631	-562.68566	486.50043	-719.88991	-552.95805	500.61979	-537.97480	-554.24726	495.97137	-701.08141	
3	0.02000000	-189.63800	455.13855	-419.11490	-134.63288	354.76250	-432.69028	-240.00820	94.48198	-440.57464	-289.39324	52.30401	-490.59924	-129.91410	42.82306	-404.20271	-93.24490	59.74105	-446.99327	-181.61725	454.52879	-825.01381	-122.47279	354.41874	-776.88314	-249.67356	92.30671	-801.85223	-298.34681	54.30345	-757.80641	-133.16220	37.52098	-819.01328	-94.80661	57.73482	-765.97910	-157.34663	245.32620	-441.65544	-193.89549	361.13423	-385.52228	-228.93453	256.75722	-401.42909	-175.54107	383.91116	-844.44407	-202.18506	266.20726	-855.53287	-477.07510	555.79951	-462.99775	-371.29112	559.52188	-447.75520	-349.56943	517.59462	-397.04372	-482.01011	459.11234	-405.90017	-366.99162	463.11858	-392.73168	-459.15408	539.98757	-811.21639	-326.35511	548.17106	-813.25163	-468.51346	433.19579	-846.60159	-327.09584	444.29918	-847.99372	-512.75688	594.21601	-506.38500	-698.29061	570.03024	-580.49499	-503.68820	584.14836	-753.17147	-699.15891	566.80370	-693.78137	-617.00076	1037.86866	-632.72261	-564.93342	1000.85820	-479.32480	-546.96293	1007.14299	-787.34745	-500.19327	974.48950	-612.55893	-497.02157	970.53954	-653.13170	-557.51107	878.18214	-408.49017	-661.82890	686.98115	-425.48024	-609.42907	702.22082	-362.22181	-506.92535	721.23365	-428.15462	-440.74142	754.79091	-497.61098	-424.19908	721.36501	-490.49369	-533.16515	860.39531	-853.20932	-621.98884	678.04071	-827.94168	-582.92524	682.06388	-898.87293	-491.56816	701.02578	-844.17674	-410.92775	746.51996	-754.60778	-404.06939	714.23093	-748.91450	-573.68078	495.59145	-531.03496	-562.67782	486.53488	-719.87579	-552.99673	500.68511	-538.01369	-554.24648	496.04112	-701.06717	
4	0.03000000	-189.66654	455.14577	-419.15062	-134.65289	354.78663	-432.75230	-240.01326	94.47756	-440.56598	-289.38437	52.28968	-490.65720	-129.91283	42.81123	-404.21422	-93.21971	59.74743	-447.04651	-181.70858	454.48436	-824.96735	-122.51319	354.42395	-776.86350	-249.67322	92.30108	-801.85432	-298.34335	54.30256	-757.81689	-133.16020	37.52387	-819.02235	-94.82087	57.72442	-765.95083	-157.27402	245.17760	-441.64193	-193.93289	361.16639	-385.51069	-229.01364	256.65512	-401.40148	-175.57168	383.94000	-844.39587	-202.10121	266.13269	-855.49839	-477.16585	555.83705	-462.99209	-371.38347	559.64410	-447.89233	-349.62470	517.60151	-397.07300	-482.05115	459.08001	-405.92440	-367.04630	463.13326	-392.78490	-459.16519	539.97885	-811.23621	-326.35123	548.17784	-813.27020	-468.52828	433.20784	-846.60158	-327.10359	444.29785	-847.98268	-512.84837	594.32550	-506.43588	-698.29916	570.02041	-580.50167	-503.75422	584.19071	-753.11767	-699.16410	566.80033	-693.78669	-616.89969	1037.95471	-632.83132	-564.84501	1000.88589	-479.27719	-546.93829	1007.13906	-787.21172	-500.10541	974.56933	-612.51852	-496.97478	970.57473	-653.09072	-557.51158	878.19469	-408.54343	-661.79209	686.97746	-425.53275	-609.52346	702.24304	-362.18994	-506.91064	721.18925	-427.96603	-440.55583	754.78949	-497.39915	-424.03842	721.32742	-490.04176	-533.17152	860.44784	-853.20199	-621.94051	678.13385	-827.90419	-582.92459	682.12828	-898.87878	-491.51015	701.03962	-844.30178	-410.85768	746.52498	-754.76950	-403.98636	714.18717	-748.98280	-573.69384	495.66429	-531.01489	-562.67142	486.56753	-719.85266	-553.00190	500.75408	-538.05241	-554.24632	496.12123	-701.03967	
5	0.04000000	-189.70681	455.19332	-419.16708	-134.67461	354.81610	-432.77969	-240.00672	94.49589	-440.55039	-289.39617	52.27278	-490.68863	-129.93162	42.79922	-404.23071	-93.21621	59.75099	-447.07543	-181.79406	454.47538	-824.94438	-122.54636	354.48791	-776.83589	-249.67027	92.31063	-801.85584	-298.34481	54.30569	-757.82194	-133.16043	37.53007	-819.02592	-94.82281	57.73268	-765.94885	-157.11568	244.93659	-441.64424	-193.95083	361.17901	-385.51111	-229.05414	256.62171	-401.38651	-175.59712	383.98684	-844.34978	-202.05827	266.12081	-855.48047	-477.18180	555.82473	-463.01428	-371.48153	559.71074	-447.98781	-349.71174	517.59412	-397.12606	-482.09180	459.06205	-405.94732	-367.11318	463.17406	-392.73052	-459.18752	539.97970	-811.24478	-326.37729	548.19139	-813.26133	-468.53430	433.20228	-846.60379	-327.12101	444.30524	-847.96360	-512.92122	594.40377	-506.49093	-698.30826	570.01537	-580.50803	-503.79901	584.22427	-753.07435	-699.21621	566.78493	-693.77371	-616.77431	1038.06134	-632.93135	-564.71939	1000.92261	-479.19488	-546.89537	1007.16090	-787.15885	-500.00254	974.63690	-612.43115	-496.91888	970.62512	-653.04789	-557.51808	878.20657	-408.51135	-661.78452	686.97660	-425.65520	-609.63109	702.27489	-362.22621	-506.88185	721.12221	-427.79776	-440.30663	754.83559	-497.20193	-423.82517	721.29091	-489.47120	-533.15292	860.51717	-853.21568	-621.89634	678.20028	-827.89323	-582.92103	682.18402	-898.88577	-491.46284	701.06705	-844.35119	-410.77510	746.54316	-754.84911	-403.89025	714.17664	-749.09424	-573.70942	495.71719	-531.00025	-562.68362	486.58822	-719.83626	-552.98236	500.82596	-538.06478	-554.28836	496.17925	-700.98819	
6	0.05000000	-189.77711	455.22229	-419.18458	-134.72201	354.85040	-432.78361	-239.99488	94.52767	-440.54001	-289.41402	52.26839	-490.69393	-129.94331	42.79041	-404.24530	-93.24007	59.74270	-447.04337	-181.83370	454.49604	-824.89052	-122.61278	354.54657	-776.75639	-249.67086	92.33178	-801.85145	-298.34967	54.30852	-757.81709	-133.15908	37.53866	-819.02363	-94.80025	57.73755	-765.94572	-157.12287	244.96401	-441.67239	-193.97828	361.18713	-385.55599	-229.02600	256.69090	-401.40159	-175.61187	384.03516	-844.30051	-202.07185	266.14530	-855.46326	-477.20563	555.78997	-463.02721	-371.53483	559.72800	-448.03176	-349.78040	517.59271	-397.18667	-482.10370	459.07349	-405.95582	-367.16701	463.19460	-392.68589	-459.23668	540.01554	-811.23527	-326.43499	548.21676	-813.14951	-468.56146	433.21143	-846.59065	-327.13527	444.33994	-847.96008	-512.96896	594.44410	-506.54484	-698.32104	570.03593	-580.50429	-503.83157	584.24853	-753.05124	-699.26751	566.81394	-693.76434	-616.66849	1038.12741	-632.92687	-564.55435	1000.94459	-479.09411	-546.83061	1007.24200	-787.20719	-499.87790	974.69895	-612.40785	-496.81035	970.67125	-652.96746	-557.50617	878.19970	-408.42575	-661.86415	687.01536	-425.78837	-609.76350	702.29281	-362.28547	-506.82990	720.99894	-427.69377	-440.01517	754.82271	-496.85864	-423.53362	721.27864	-488.82728	-533.11544	860.58696	-853.21814	-621.83733	678.21892	-827.87413	-582.91444	682.24242	-898.88761	-491.42265	701.09711	-844.34305	-410.69964	746.52559	-754.86329	-403.75816	714.19922	-749.29316	-573.73645	495.75283	-531.00156	-562.72049	486.61357	-719.83764	-552.97660	500.86581	-538.09698	-554.33766	496.23242	-700.97034	
7	0.06000000	-189.86673	455.21195	-419.22544	-134.79353	354.84586	-432.84092	-239.97911	94.56200	-440.53127	-289.42932	52.29801	-490.67873	-129.93238	42.79831	-404.24460	-93.25735	59.73871	-447.00198	-181.88946	454.55049	-824.84829	-122.73165	354.59450	-776.63470	-249.67347	92.34491	-801.83635	-298.34943	54.32135	-757.81842	-133.15528	37.54328	-819.01808	-94.76410	57.72796	-765.92207	-157.30329	245.27526	-441.72085	-194.01405	361.21804	-385.61398	-229.00419	256.73390	-401.41445	-175.63015	384.06803	-844.23410	-202.10438	266.15938	-855.41942	-477.27330	555.76990	-463.00603	-371.57464	559.71345	-448.01153	-349.82273	517.61385	-397.24645	-482.11022	459.09406	-405.95966	-367.21153	463.19235	-392.73745	-459.30145	540.07777	-811.21221	-326.50466	548.26917	-812.92121	-468.63805	433.22473	-846.48788	-327.14888	444.38637	-847.94778	-512.99253	594.46519	-506.61274	-698.34162	570.08838	-580.46561	-503.87165	584.26676	-753.03830	-699.28744	566.90668	-693.78093	-616.55155	1038.15336	-632.86073	-564.37623	1000.96101	-479.00221	-546.71349	1007.34460	-787.25945	-499.70888	974.77854	-612.45780	-496.61835	970.68291	-652.80939	-557.43273	878.18193	-408.42608	-661.92031	687.08505	-425.91415	-609.89963	702.28098	-362.30401	-506.73711	720.91508	-427.46709	-439.66362	754.71857	-496.32016	-423.20454	721.24485	-488.18487	-533.05374	860.65607	-853.21402	-621.77746	678.24679	-827.85730	-582.91416	682.33467	-898.90181	-491.36860	701.14427	-844.40230	-410.59570	746.47040	-754.88220	-403.58824	714.23074	-749.52051	-573.77235	495.78630	-531.01718	-562.78109	486.65294	-719.85499	-553.00826	500.87577	-538.18503	-554.36733	496.30397	-701.00653	
